ply
format ascii 1.0
element vertex 176
property float x
property float y
property float z
element face 348
property list uchar int vertex_indices
property uint8 red
property uint8 green
property uint8 blue
end_header
-1167.65966796875 -82.32029724121094 -1744.6346435546875
-1167.3531494140625 -85.68846130371094 -1750.5509033203125
-1169.91064453125 -82.32029724121094 -1749.411865234375
-1172.97900390625 -82.32029724121094 -1752.8826904296875
-1169.9405517578125 -85.68846130371094 -1752.876708984375
-1154.8861083984375 -85.68846893310547 -1762.3909912109375
-1153.5037841796875 -85.68846130371094 -1759.6363525390625
-1153.6473388671875 -82.32029724121094 -1765.0390625
-1150.9034423828125 -82.32029724121094 -1761.0650634765625
-1167.6552734375 -82.32029724121094 -1731.5733642578125
-1165.4605712890625 -85.68846130371094 -1731.6090087890625
-1167.27001953125 -82.32029724121094 -1738.10400390625
-1165.03173828125 -85.68846130371094 -1738.4432373046875
-1165.3212890625 -85.68846130371094 -1745.277587890625
-1152.55419921875 -85.68846130371094 -1753.8790283203125
-1149.7568359375 -82.32029724121094 -1754.1197509765625
-1152.008544921875 -85.68846130371094 -1742.8563232421875
-1151.8349609375 -85.68846130371094 -1731.8336181640625
-1149.6754150390625 -82.32029724121094 -1742.9581298828125
-1149.593994140625 -82.32029724121094 -1731.7965087890625
-1152.0626220703125 -85.68846130371094 -1716.218017578125
-1165.0289306640625 -85.68846130371094 -1716.1689453125
-1167.0806884765625 -82.32029724121094 -1715.9000244140625
-1150.1241455078125 -82.32029724121094 -1716.1231689453125
-1150.3389892578125 -82.32029724121094 -1709.804931640625
-1166.40478515625 -82.32029724121094 -1709.5035400390625
-1164.2734375 -85.68846130371094 -1709.843994140625
-1151.98828125 -85.68846130371094 -1709.900146484375
-1150.5538330078125 -82.32029724121094 -1703.48681640625
-1152.106689453125 -85.68846130371094 -1703.582275390625
-1150.9439697265625 -82.32029724121094 -1697.515380859375
-1152.1053466796875 -85.68846130371094 -1697.5186767578125
-1162.830810546875 -85.68846130371094 -1703.51904296875
-1161.9676513671875 -85.68846130371094 -1697.509521484375
-1164.827880859375 -82.32029724121094 -1703.1070556640625
-1163.960693359375 -82.32029724121094 -1697.5052490234375
-1163.8040771484375 -81.08148193359375 -1694.2137451171875
-1161.696533203125 -83.72309112548828 -1694.2135009765625
-1163.682373046875 -79.71028137207031 -1691.6732177734375
-1161.65576171875 -81.20220184326172 -1691.6728515625
-1152.3057861328125 -81.20220184326172 -1691.677001953125
-1151.056884765625 -81.28443145751953 -1694.2183837890625
-1152.2181396484375 -83.72309112548828 -1694.2200927734375
-1151.14453125 -79.71028137207031 -1691.675048828125
-1161.5535888671875 -74.2669448852539 -1766.9837646484375
-1160.8092041015625 -70.89877319335938 -1764.0465087890625
-1165.680419921875 -74.2669448852539 -1764.725341796875
-1164.16796875 -70.89877319335938 -1762.3614501953125
-1169.1910400390625 -74.2669448852539 -1761.9058837890625
-1166.9105224609375 -70.89877319335938 -1760.1153564453125
-1157.9444580078125 -70.89877319335938 -1764.1380615234375
-1157.6973876953125 -74.2669448852539 -1766.9307861328125
-1169.1868896484375 -70.89877319335938 -1756.5234375
-1171.846435546875 -74.2669448852539 -1757.4217529296875
-1172.97900390625 -74.26619720458984 -1752.8826904296875
-1169.9405517578125 -70.89877319335938 -1752.876708984375
-1154.8861083984375 -70.89877319335938 -1762.3909912109375
-1153.6466064453125 -74.2669448852539 -1765.0390625
-1167.3531494140625 -70.89877319335938 -1750.5509033203125
-1169.909912109375 -74.2669448852539 -1749.411865234375
-1167.658935546875 -74.2669448852539 -1744.6346435546875
-1165.3212890625 -70.89877319335938 -1745.277587890625
-1165.03173828125 -70.89877319335938 -1738.4432373046875
-1167.27001953125 -74.2669448852539 -1738.104736328125
-1167.6552734375 -74.2669448852539 -1731.5733642578125
-1165.4605712890625 -70.89877319335938 -1731.6090087890625
-1152.008544921875 -70.89877319335938 -1742.8563232421875
-1152.55419921875 -70.89877319335938 -1753.8790283203125
-1153.5037841796875 -70.89877319335938 -1759.6363525390625
-1150.9027099609375 -74.2669448852539 -1761.0650634765625
-1149.7568359375 -74.2669448852539 -1754.1190185546875
-1149.6754150390625 -74.2669448852539 -1742.9581298828125
-1149.593994140625 -74.26619720458984 -1731.7972412109375
-1151.8349609375 -70.89877319335938 -1731.8336181640625
-1152.0626220703125 -70.89877319335938 -1716.218017578125
-1165.0289306640625 -70.89877319335938 -1716.1689453125
-1167.0806884765625 -74.26619720458984 -1715.9000244140625
-1152.106689453125 -70.89877319335938 -1703.582275390625
-1162.830810546875 -70.89877319335938 -1703.51904296875
-1151.98828125 -70.89877319335938 -1709.900146484375
-1164.2734375 -70.89877319335938 -1709.843994140625
-1166.40478515625 -74.2669448852539 -1709.5042724609375
-1150.1234130859375 -74.2669448852539 -1716.1231689453125
-1150.3389892578125 -74.2669448852539 -1709.804931640625
-1150.5538330078125 -74.26619720458984 -1703.486083984375
-1150.9439697265625 -74.2669448852539 -1697.515380859375
-1152.1053466796875 -70.89877319335938 -1697.5186767578125
-1161.9676513671875 -70.89877319335938 -1697.509521484375
-1164.827880859375 -74.2669448852539 -1703.1070556640625
-1163.960693359375 -74.26619720458984 -1697.5052490234375
-1163.8040771484375 -75.5057601928711 -1694.2137451171875
-1151.056884765625 -75.30281066894531 -1694.2183837890625
-1152.2181396484375 -72.86415100097656 -1694.2200927734375
-1161.696533203125 -72.86415100097656 -1694.2135009765625
-1163.682373046875 -76.87696075439453 -1691.6732177734375
-1161.65576171875 -75.38504028320312 -1691.6728515625
-1152.3057861328125 -75.38504028320312 -1691.677001953125
-1151.14453125 -76.87696075439453 -1691.675048828125
-1165.8978271484375 -78.29362487792969 -1556.7291259765625
-1165.06640625 -77.7533187866211 -1557.211669921875
-1159.0911865234375 -78.29361724853516 -1544.9921875
-1159.269775390625 -77.84209442138672 -1547.9510498046875
-1173.1226806640625 -78.28776550292969 -1574.75537109375
-1172.26611328125 -77.65518951416016 -1575.541259765625
-1156.7779541015625 -76.89697265625 -1564.1009521484375
-1156.051025390625 -77.83740234375 -1563.648681640625
-1177.6619873046875 -78.29362487792969 -1594.30419921875
-1176.5653076171875 -77.77012634277344 -1594.765380859375
-1154.9140625 -76.22183990478516 -1580.547607421875
-1153.62646484375 -77.70545196533203 -1580.2506103515625
-1153.149658203125 -76.08988952636719 -1597.0526123046875
-1151.976806640625 -77.57350158691406 -1596.8526611328125
-1179.97021484375 -78.29361724853516 -1613.0360107421875
-1178.8546142578125 -77.77012634277344 -1613.33984375
-1152.2828369140625 -76.08988952636719 -1613.5576171875
-1151.1453857421875 -77.57350158691406 -1613.4547119140625
-1180.3692626953125 -77.72315216064453 -1631.914306640625
-1181.5028076171875 -78.29361724853516 -1631.7677001953125
-1181.7205810546875 -78.29361724853516 -1679.859375
-1180.1724853515625 -77.60281372070312 -1679.302734375
-1181.6116943359375 -78.29361724853516 -1674.666259765625
-1180.2249755859375 -77.60281372070312 -1674.702880859375
-1152.28076171875 -75.38558197021484 -1674.6346435546875
-1152.28173828125 -75.73773956298828 -1644.0960693359375
-1151.1446533203125 -76.87799072265625 -1674.6649169921875
-1151.7137451171875 -76.48394012451172 -1644.1112060546875
-1151.14501953125 -77.22574615478516 -1644.059814453125
-1162.0277099609375 -75.38558197021484 -1688.990234375
-1164.5477294921875 -75.87377166748047 -1685.1824951171875
-1169.166748046875 -76.17406463623047 -1682.269287109375
-1174.653564453125 -76.57141876220703 -1680.3939208984375
-1175.3603515625 -77.81271362304688 -1681.077880859375
-1170.822509765625 -77.26182556152344 -1682.809814453125
-1165.683837890625 -77.11564636230469 -1685.8135986328125
-1163.97998046875 -76.8779525756836 -1688.4429931640625
-1159.269775390625 -78.74515533447266 -1547.9510498046875
-1165.06640625 -78.83392333984375 -1557.211669921875
-1173.1226806640625 -78.29948425292969 -1574.75537109375
-1172.26611328125 -78.93205261230469 -1575.541259765625
-1156.7779541015625 -79.69026947021484 -1564.1009521484375
-1156.051025390625 -78.74983978271484 -1563.648681640625
-1176.5653076171875 -78.8171157836914 -1594.765380859375
-1154.9140625 -80.36540222167969 -1580.547607421875
-1153.62646484375 -78.88179016113281 -1580.2506103515625
-1153.149658203125 -80.49735260009766 -1597.0526123046875
-1178.8546142578125 -78.8171157836914 -1613.33984375
-1180.3692626953125 -78.86408996582031 -1631.914306640625
-1152.2828369140625 -80.49735260009766 -1613.5576171875
-1151.976806640625 -79.01373291015625 -1596.8519287109375
-1180.2249755859375 -78.98442077636719 -1674.702880859375
-1152.28076171875 -81.20166015625 -1674.6346435546875
-1152.28173828125 -80.84950256347656 -1644.0960693359375
-1151.7137451171875 -80.10330200195312 -1644.1112060546875
-1151.1453857421875 -79.01373291015625 -1613.4547119140625
-1151.14501953125 -79.36149597167969 -1644.059814453125
-1174.653564453125 -80.01582336425781 -1680.3939208984375
-1180.1724853515625 -78.98442077636719 -1679.302734375
-1175.3603515625 -78.77452850341797 -1681.077880859375
-1170.822509765625 -79.3254165649414 -1682.809814453125
-1169.166748046875 -80.41317749023438 -1682.269287109375
-1165.683837890625 -79.47159576416016 -1685.8135986328125
-1164.5477294921875 -80.71346282958984 -1685.1824951171875
-1163.97998046875 -79.70928192138672 -1688.4429931640625
-1162.0277099609375 -81.20166015625 -1688.990234375
-1151.1446533203125 -79.7092514038086 -1674.6649169921875
-1164.16796875 -85.68846130371094 -1762.3614501953125
-1160.8092041015625 -85.68846893310547 -1764.0465087890625
-1165.680419921875 -82.32029724121094 -1764.725341796875
-1161.5535888671875 -82.31954193115234 -1766.9837646484375
-1169.1903076171875 -82.32029724121094 -1761.9058837890625
-1166.9105224609375 -85.68846893310547 -1760.1153564453125
-1157.9444580078125 -85.68846130371094 -1764.1380615234375
-1157.696533203125 -82.32029724121094 -1766.9307861328125
-1171.8455810546875 -82.32029724121094 -1757.4217529296875
-1169.1868896484375 -85.68846130371094 -1756.5234375
-1151.14501953125 -77.94586181640625 -1644.059814453125
3 0 1 2 60 160 150
3 3 2 4 60 160 150
3 2 1 4 60 160 150
3 4 1 5 60 160 150
3 1 6 5 60 160 150
3 5 6 7 60 160 150
3 6 8 7 60 160 150
3 9 10 11 60 160 150
3 10 12 11 60 160 150
3 11 12 0 60 160 150
3 12 13 0 60 160 150
3 0 13 1 60 160 150
3 13 14 1 60 160 150
3 1 14 6 60 160 150
3 6 14 8 60 160 150
3 14 15 8 60 160 150
3 14 13 16 60 160 150
3 13 12 16 60 160 150
3 12 10 16 60 160 150
3 16 10 17 60 160 150
3 15 14 18 60 160 150
3 14 16 18 60 160 150
3 18 16 19 60 160 150
3 16 17 19 60 160 150
3 19 17 20 60 160 150
3 17 10 20 60 160 150
3 20 10 21 60 160 150
3 21 10 22 60 160 150
3 10 9 22 60 160 150
3 19 20 23 60 160 150
3 20 24 23 60 160 150
3 22 25 21 60 160 150
3 25 26 21 60 160 150
3 21 26 20 60 160 150
3 26 27 20 60 160 150
3 20 27 24 60 160 150
3 24 27 28 60 160 150
3 27 29 28 60 160 150
3 28 29 30 60 160 150
3 30 29 31 60 160 150
3 29 32 31 60 160 150
3 31 32 33 60 160 150
3 32 34 33 60 160 150
3 34 35 33 60 160 150
3 35 36 33 60 160 150
3 33 36 37 60 160 150
3 36 38 37 60 160 150
3 38 39 37 60 160 150
3 37 39 40 60 160 150
3 25 34 26 60 160 150
3 34 32 26 60 160 150
3 26 32 27 60 160 150
3 32 29 27 60 160 150
3 30 31 41 60 160 150
3 41 31 42 60 160 150
3 31 33 42 60 160 150
3 42 33 37 60 160 150
3 37 40 42 60 160 150
3 40 43 42 60 160 150
3 42 43 41 60 160 150
3 44 45 46 60 160 150
3 45 47 46 60 160 150
3 48 46 49 60 160 150
3 46 47 49 60 160 150
3 49 47 50 60 160 150
3 47 45 50 60 160 150
3 50 45 51 60 160 150
3 45 44 51 60 160 150
3 50 52 49 60 160 150
3 52 53 49 60 160 150
3 49 53 48 60 160 150
3 54 53 55 60 160 150
3 53 52 55 60 160 150
3 55 52 56 60 160 150
3 52 50 56 60 160 150
3 50 51 56 60 160 150
3 56 51 57 60 160 150
3 56 58 55 60 160 150
3 54 55 59 60 160 150
3 55 58 59 60 160 150
3 59 58 60 60 160 150
3 58 61 60 60 160 150
3 61 62 60 60 160 150
3 60 62 63 60 160 150
3 64 63 65 60 160 150
3 63 62 65 60 160 150
3 65 62 66 60 160 150
3 62 61 66 60 160 150
3 66 61 67 60 160 150
3 61 58 67 60 160 150
3 67 58 68 60 160 150
3 58 56 68 60 160 150
3 56 57 68 60 160 150
3 68 57 69 60 160 150
3 68 69 67 60 160 150
3 69 70 67 60 160 150
3 70 71 67 60 160 150
3 67 71 66 60 160 150
3 71 72 66 60 160 150
3 66 72 73 60 160 150
3 72 74 73 60 160 150
3 73 74 65 60 160 150
3 74 75 65 60 160 150
3 75 76 65 60 160 150
3 65 76 64 60 160 150
3 65 66 73 60 160 150
3 77 78 79 60 160 150
3 78 80 79 60 160 150
3 79 80 74 60 160 150
3 74 80 75 60 160 150
3 80 81 75 60 160 150
3 75 81 76 60 160 150
3 72 82 74 60 160 150
3 82 83 74 60 160 150
3 74 83 79 60 160 150
3 83 84 79 60 160 150
3 79 84 77 60 160 150
3 84 85 77 60 160 150
3 85 86 77 60 160 150
3 77 86 78 60 160 150
3 86 87 78 60 160 150
3 78 87 88 60 160 150
3 88 87 89 60 160 150
3 87 90 89 60 160 150
3 85 91 86 60 160 150
3 91 92 86 60 160 150
3 86 92 87 60 160 150
3 92 93 87 60 160 150
3 87 93 90 60 160 150
3 90 93 94 60 160 150
3 94 93 95 60 160 150
3 95 93 96 60 160 150
3 93 92 96 60 160 150
3 96 92 97 60 160 150
3 92 91 97 60 160 150
3 98 99 100 120 240 200
3 99 101 100 120 240 200
3 102 103 98 120 240 200
3 98 103 99 120 240 200
3 103 104 99 120 240 200
3 99 104 101 120 240 200
3 104 105 101 120 240 200
3 101 105 100 120 240 200
3 106 107 102 120 240 200
3 102 107 103 120 240 200
3 107 108 103 120 240 200
3 103 108 104 120 240 200
3 108 109 104 120 240 200
3 104 109 105 120 240 200
3 107 110 108 120 240 200
3 110 111 108 120 240 200
3 108 111 109 120 240 200
3 106 112 107 120 240 200
3 112 113 107 120 240 200
3 107 113 110 120 240 200
3 113 114 110 120 240 200
3 110 114 111 120 240 200
3 114 115 111 120 240 200
3 114 113 116 120 240 200
3 113 112 116 120 240 200
3 116 112 117 120 240 200
3 118 119 120 60 160 150
3 119 121 120 60 160 150
3 120 121 117 60 160 150
3 117 121 116 60 160 150
3 121 122 116 60 160 150
3 116 122 123 60 160 150
3 122 124 125 60 160 150
3 126 125 124 60 160 150
3 127 122 128 60 160 150
3 128 122 129 60 160 150
3 129 122 130 60 160 150
3 122 121 130 60 160 150
3 130 121 119 60 160 150
3 118 131 119 60 160 150
3 119 131 130 60 160 150
3 131 132 130 60 160 150
3 130 132 129 60 160 150
3 132 133 129 60 160 150
3 129 133 128 60 160 150
3 133 134 128 60 160 150
3 128 134 127 60 160 150
3 134 94 127 60 160 150
3 94 95 127 60 160 150
3 127 95 122 60 160 150
3 95 96 122 60 160 150
3 96 97 122 60 160 150
3 97 124 122 60 160 150
3 81 80 88 60 160 150
3 80 78 88 60 160 150
3 135 136 100 120 240 200
3 136 98 100 120 240 200
3 137 98 138 120 240 200
3 98 136 138 120 240 200
3 138 136 139 120 240 200
3 136 135 139 120 240 200
3 139 135 140 120 240 200
3 135 100 140 120 240 200
3 106 137 141 120 240 200
3 137 138 141 120 240 200
3 141 138 142 120 240 200
3 138 139 142 120 240 200
3 142 139 143 120 240 200
3 139 140 143 120 240 200
3 142 144 141 120 240 200
3 144 145 141 120 240 200
3 145 112 141 120 240 200
3 141 112 106 120 240 200
3 117 112 146 120 240 200
3 112 145 146 120 240 200
3 146 145 147 120 240 200
3 145 144 147 120 240 200
3 147 144 148 120 240 200
3 144 142 148 120 240 200
3 148 142 143 120 240 200
3 120 117 149 60 160 150
3 117 146 149 60 160 150
3 149 146 150 60 160 150
3 146 147 151 120 240 200
3 152 151 147 120 240 200
3 147 153 154 120 240 200
3 147 148 153 120 240 200
3 150 155 149 60 160 150
3 155 156 149 60 160 150
3 149 156 120 60 160 150
3 120 156 118 60 160 150
3 118 156 157 60 160 150
3 156 155 157 60 160 150
3 157 155 158 60 160 150
3 155 159 158 60 160 150
3 158 159 160 60 160 150
3 159 161 160 60 160 150
3 160 161 162 60 160 150
3 161 163 162 60 160 150
3 162 163 38 60 160 150
3 38 163 39 60 160 150
3 163 150 39 60 160 150
3 39 150 40 60 160 150
3 40 150 43 60 160 150
3 150 164 43 60 160 150
3 155 150 159 60 160 150
3 159 150 161 60 160 150
3 150 163 161 60 160 150
3 165 166 167 60 160 150
3 166 168 167 60 160 150
3 169 170 167 60 160 150
3 167 170 165 60 160 150
3 170 171 165 60 160 150
3 165 171 166 60 160 150
3 171 172 166 60 160 150
3 166 172 168 60 160 150
3 169 173 170 60 160 150
3 173 174 170 60 160 150
3 170 174 171 60 160 150
3 174 5 171 60 160 150
3 171 5 172 60 160 150
3 5 7 172 60 160 150
3 5 174 4 60 160 150
3 174 173 4 60 160 150
3 4 173 3 60 160 150
3 118 157 131 60 160 150
3 157 158 131 60 160 150
3 131 158 132 60 160 150
3 158 160 132 60 160 150
3 132 160 133 60 160 150
3 160 162 133 60 160 150
3 133 162 134 60 160 150
3 162 38 134 60 160 150
3 134 38 94 60 160 150
3 100 105 140 120 240 200
3 105 109 140 120 240 200
3 140 109 143 120 240 200
3 109 111 143 120 240 200
3 143 111 148 120 240 200
3 111 115 148 120 240 200
3 148 115 153 120 240 200
3 175 126 124 60 160 150
3 164 175 124 60 160 150
3 164 124 43 60 160 150
3 124 97 43 60 160 150
3 60 63 0 60 160 150
3 0 63 11 60 160 150
3 11 63 9 60 160 150
3 63 64 9 60 160 150
3 64 76 9 60 160 150
3 9 76 22 60 160 150
3 76 81 22 60 160 150
3 22 81 25 60 160 150
3 25 81 34 60 160 150
3 81 88 34 60 160 150
3 88 89 34 60 160 150
3 34 89 35 60 160 150
3 89 90 35 60 160 150
3 35 90 36 60 160 150
3 36 90 38 60 160 150
3 90 94 38 60 160 150
3 0 2 60 60 160 150
3 60 2 59 60 160 150
3 2 3 59 60 160 150
3 59 3 54 60 160 150
3 54 3 53 60 160 150
3 3 173 53 60 160 150
3 173 169 53 60 160 150
3 53 169 48 60 160 150
3 169 167 48 60 160 150
3 48 167 46 60 160 150
3 167 168 46 60 160 150
3 46 168 44 60 160 150
3 168 172 44 60 160 150
3 44 172 51 60 160 150
3 51 172 57 60 160 150
3 172 7 57 60 160 150
3 7 8 57 60 160 150
3 8 69 57 60 160 150
3 8 15 69 60 160 150
3 69 15 70 60 160 150
3 15 18 70 60 160 150
3 70 18 71 60 160 150
3 71 18 72 60 160 150
3 18 19 72 60 160 150
3 19 23 72 60 160 150
3 72 23 82 60 160 150
3 23 24 82 60 160 150
3 82 24 83 60 160 150
3 83 24 84 60 160 150
3 24 28 84 60 160 150
3 28 30 84 60 160 150
3 84 30 85 60 160 150
3 30 41 85 60 160 150
3 85 41 91 60 160 150
3 91 41 97 60 160 150
3 41 43 97 60 160 150
3 98 137 102 120 240 200
3 137 106 102 120 240 200
3 115 175 153 120 240 200
3 175 154 153 120 240 200
3 114 126 115 120 240 200
3 175 115 126 120 240 200
3 154 152 147 120 240 200
3 175 164 154 60 160 150
3 125 123 122 60 160 150
3 126 114 125 120 240 200
3 150 152 164 60 160 150
3 154 164 152 60 160 150
3 116 123 114 120 240 200
3 125 114 123 120 240 200
3 146 151 150 60 160 150
3 152 150 151 60 160 150
