ply
format ascii 1.0
comment Exported by Aspose.3D 24.4.1
element vertex 176
property float x
property float y
property float z
property float nx
property float ny
property float nz
element face 348
property list uchar int vertex_index
end_header
-1167.65966796875 -82.32029724121094 -1744.6346435546875 -0.857529274054936 -0.3360032694167785 0.17849999080811227
-1167.3531494140625 -85.68846130371094 -1750.5509033203125 -0.2838187602134344 -0.8323120389665876 0.17320713935706472
-1169.91064453125 -82.32029724121094 -1749.411865234375 -0.7346156140168507 -0.30047195862061926 0.4973418364922205
-1172.97900390625 -82.32029724121094 -1752.8826904296875 -0.7982968787352244 -0.20301830126595513 0.20119653145472208
-1169.9405517578125 -85.68846130371094 -1752.876708984375 -0.43968477540274736 -0.7433394193649292 0.13386513921799784
-1154.8861083984375 -85.68846893310547 -1762.3909912109375 0.20769415893243753 -0.8316915460995264 -0.24962528907508386
-1153.5037841796875 -85.68846130371094 -1759.6363525390625 0.42329307476786654 -0.7722284436225891 -0.18462992620874275
-1153.6473388671875 -82.32029724121094 -1765.0390625 0.5846654891967774 -0.37554683382768417 -0.5912784755229951
-1150.9034423828125 -82.32029724121094 -1761.0650634765625 0.794847031434377 -0.3229145861878351 -0.32950404038031894
-1167.6552734375 -82.32029724121094 -1731.5733642578125 -0.9449165364106495 -0.18180592609084792 -0.010532220515112082
-1165.4605712890625 -85.68846130371094 -1731.6090087890625 -0.42017415165901184 -0.7701699361205101 -0.005897801369428635
-1167.27001953125 -82.32029724121094 -1738.10400390625 -0.8994416236877442 -0.33004448368637895 -0.010311750322580339
-1165.03173828125 -85.68846130371094 -1738.4432373046875 -0.4963041424751282 -0.7359426140785218 0.006363265961408616
-1165.3212890625 -85.68846130371094 -1745.277587890625 -0.3152750372886658 -0.8313627243041992 0.06538492441177368
-1152.55419921875 -85.68846130371094 -1753.8790283203125 0.44394279377801077 -0.7838719487190247 -0.042383685774569
-1149.7568359375 -82.32029724121094 -1754.1197509765625 0.9002307295799256 -0.2556755161502679 -0.09276626082137228
-1152.008544921875 -85.68846130371094 -1742.8563232421875 0.35361284017562866 -0.8133007884025574 -0.008534118067473173
-1151.8349609375 -85.68846130371094 -1731.8336181640625 0.4162505120038986 -0.7769397348165512 -0.00024430500343441963
-1149.6754150390625 -82.32029724121094 -1742.9581298828125 0.9159562928336007 -0.2540664761675089 -0.011630032477634293
-1149.593994140625 -82.32029724121094 -1731.7965087890625 0.8920545478661854 -0.3627523628200227 0.008137865302463371
-1152.0626220703125 -85.68846130371094 -1716.218017578125 0.432820625603199 -0.7489931434392929 0.00753968779463321
-1165.0289306640625 -85.68846130371094 -1716.1689453125 -0.507309353351593 -0.7168118834495545 0.04265022091567516
-1167.0806884765625 -82.32029724121094 -1715.9000244140625 -0.9209780991077423 -0.2651215647833993 0.06514585576951504
-1150.1241455078125 -82.32029724121094 -1716.1231689453125 0.9460474848747253 -0.19972404778445707 0.03205572366714478
-1150.3389892578125 -82.32029724121094 -1709.804931640625 0.9513095872742788 -0.19701832836212266 0.026494526038212434
-1166.40478515625 -82.32029724121094 -1709.5035400390625 -0.8934626936912538 -0.32015224447459334 0.1471212461590767
-1164.2734375 -85.68846130371094 -1709.843994140625 -0.41476624210675556 -0.7658746540546417 0.08197866752743721
-1151.98828125 -85.68846130371094 -1709.900146484375 0.45055442055066425 -0.7164712995290756 0.006159820438673099
-1150.5538330078125 -82.32029724121094 -1703.48681640625 0.9416714310646057 -0.2557271453802059 0.04118024110794068
-1152.106689453125 -85.68846130371094 -1703.582275390625 0.5518214821815491 -0.6328600823879242 0.015198029635939747
-1150.9439697265625 -82.32029724121094 -1697.515380859375 0.9638861020406086 -0.17807386393057337 0.05953265420976095
-1152.1053466796875 -85.68846130371094 -1697.5186767578125 0.4584079109141991 -0.6535949607690175 0.1535387263187052
-1162.830810546875 -85.68846130371094 -1703.51904296875 -0.28020916382471717 -0.8391651213169098 0.05198895807067553
-1161.9676513671875 -85.68846130371094 -1697.509521484375 -0.46485148719511926 -0.6868496111461094 0.27202200996024267
-1164.827880859375 -82.32029724121094 -1703.1070556640625 -0.9088613465428352 -0.2597630559576687 0.17879700008779764
-1163.960693359375 -82.32029724121094 -1697.5052490234375 -0.9354132890701294 -0.2002306216658127 0.12133616730570794
-1163.8040771484375 -81.08148193359375 -1694.2137451171875 -0.8568968892097474 -0.3303967595100403 0.214438945800066
-1161.696533203125 -83.72309112548828 -1694.2135009765625 -0.3181049895695954 -0.6768220365047455 0.5498852133750916
-1163.682373046875 -79.71028137207031 -1691.6732177734375 -0.7987139075994492 -0.34980098571228346 0.09412569273263216
-1161.65576171875 -81.20220184326172 -1691.6728515625 -0.21038306685801444 -0.8277373552322388 0.25029207564730316
-1152.3057861328125 -81.20220184326172 -1691.677001953125 0.2910587339807876 -0.7105744600296021 0.38884366371567014
-1151.056884765625 -81.28443145751953 -1694.2183837890625 0.9525089349065508 -0.16411622810603277 0.11885011409010206
-1152.2181396484375 -83.72309112548828 -1694.2200927734375 0.39995490005336853 -0.6287334064642588 0.47100184857845306
-1151.14453125 -79.71028137207031 -1691.675048828125 0.8735619017056055 -0.3072510336910373 0.12220146383638815
-1161.5535888671875 -74.2669448852539 -1766.9837646484375 -0.16083995010703803 0.26254610380815396 -0.85865797996521
-1160.8092041015625 -70.89877319335938 -1764.0465087890625 -0.14430448967524398 0.7175593852996827 -0.5749876971911817
-1165.680419921875 -74.2669448852539 -1764.725341796875 -0.46593451499938965 0.3678455770108998 -0.725336696420397
-1164.16796875 -70.89877319335938 -1762.3614501953125 -0.20835885957843558 0.8188969194889069 -0.3210680195057307
-1169.1910400390625 -74.2669448852539 -1761.9058837890625 -0.6494384944438935 0.2583094562111434 -0.610770070552826
-1166.9105224609375 -70.89877319335938 -1760.1153564453125 -0.37981921892893666 0.7597499489784241 -0.332846995819717
-1157.9444580078125 -70.89877319335938 -1764.1380615234375 0.06183023413757856 0.8733725249767303 -0.24383432995611068
-1157.6973876953125 -74.2669448852539 -1766.9307861328125 0.18962593066195646 0.4252848280893507 -0.801331748565038
-1169.1868896484375 -70.89877319335938 -1756.5234375 -0.2822051538317183 0.8533401489257812 -0.1143934464050087
-1171.846435546875 -74.2669448852539 -1757.4217529296875 -0.8070922642946243 0.3218139297039446 -0.3306462410837412
-1172.97900390625 -74.26619720458984 -1752.8826904296875 -0.7675405889749527 0.30454512559856717 0.19681907072663307
-1169.9405517578125 -70.89877319335938 -1752.876708984375 -0.4396445386268907 0.7433585127194722 0.13390310704517727
-1154.8861083984375 -70.89877319335938 -1762.3909912109375 0.20767145622938799 0.8317053743771143 -0.24962760774729453
-1153.6466064453125 -74.2669448852539 -1765.0390625 0.5955886202199118 0.268242262547054 -0.632941003356661
-1167.3531494140625 -70.89877319335938 -1750.5509033203125 -0.28384477779196815 0.8322721975190298 0.17322190242735047
-1169.909912109375 -74.2669448852539 -1749.411865234375 -0.7086984117825825 0.3005106385029504 0.5367415448029835
-1167.658935546875 -74.2669448852539 -1744.6346435546875 -0.8441902909960065 0.33601862748348915 0.23087922377245765
-1165.3212890625 -70.89877319335938 -1745.277587890625 -0.31530710458755495 0.8313159346580505 0.06539141982793809
-1165.03173828125 -70.89877319335938 -1738.4432373046875 -0.496322774887085 0.7359175324440003 0.006346268951892853
-1167.27001953125 -74.2669448852539 -1738.104736328125 -0.9276730503354753 0.23575893338284004 -0.007296592529330934
-1167.6552734375 -74.2669448852539 -1731.5733642578125 -0.9179769158363342 0.27270764112472534 -0.0102391904219985
-1165.4605712890625 -70.89877319335938 -1731.6090087890625 -0.4201671704649925 0.7701815366744995 -0.005900490563362837
-1152.008544921875 -70.89877319335938 -1742.8563232421875 0.3536044188908168 0.813313399042402 -0.008539503240691764
-1152.55419921875 -70.89877319335938 -1753.8790283203125 0.44393491744995117 0.7838842357907976 -0.04236878527860556
-1153.5037841796875 -70.89877319335938 -1759.6363525390625 0.423251645589383 0.7722864627838135 -0.1846128578204912
-1150.9027099609375 -74.2669448852539 -1761.0650634765625 0.8221221466859181 0.32287559083185136 -0.26191077629725135
-1149.7568359375 -74.2669448852539 -1754.1190185546875 0.902901840209961 0.2556606756326346 -0.06162923397496343
-1149.6754150390625 -74.2669448852539 -1742.9581298828125 0.8823494672775269 0.3556929707527161 -0.013372518774122
-1149.593994140625 -74.26619720458984 -1731.7972412109375 0.9189416915178299 0.27209278069688025 0.009403345815371722
-1151.8349609375 -70.89877319335938 -1731.8336181640625 0.4162219762802124 0.7769826203584671 -0.0002442733384668827
-1152.0626220703125 -70.89877319335938 -1716.218017578125 0.43279243260622025 0.7490398325026035 0.007549321046099067
-1165.0289306640625 -70.89877319335938 -1716.1689453125 -0.5072891712188721 0.7168426036834717 0.042663280665874485
-1167.0806884765625 -74.26619720458984 -1715.9000244140625 -0.921770413716634 0.265151569851227 0.05374646248916785
-1152.106689453125 -70.89877319335938 -1703.582275390625 0.5518052577972412 0.6328935623168945 0.015209355601109566
-1162.830810546875 -70.89877319335938 -1703.51904296875 -0.28020914395650226 0.8391651411851246 0.05198894813656807
-1151.98828125 -70.89877319335938 -1709.900146484375 0.45054863890012103 0.7164845168590546 0.006150413615008195
-1164.2734375 -70.89877319335938 -1709.843994140625 -0.41477207342783606 0.7658667961756388 0.08197593688964844
-1166.40478515625 -74.2669448852539 -1709.5042724609375 -0.9189551217215401 0.22869482397087534 0.154298546058791
-1150.1234130859375 -74.2669448852539 -1716.1231689453125 0.94601149559021 0.19970815937267902 0.032131411507725714
-1150.3389892578125 -74.2669448852539 -1709.804931640625 0.9320474863052368 0.2758352640724283 0.02350706271827221
-1150.5538330078125 -74.26619720458984 -1703.486083984375 0.9579388499259949 0.18268343158160555 0.04358538745769432
-1150.9439697265625 -74.2669448852539 -1697.515380859375 0.9641359349091847 0.1780874232451121 0.05437422111087168
-1152.1053466796875 -70.89877319335938 -1697.5186767578125 0.45840787125537946 0.6535949259996414 0.15353889516942823
-1161.9676513671875 -70.89877319335938 -1697.509521484375 -0.4648348117230593 0.6868715882301331 0.2720308740224157
-1164.827880859375 -74.2669448852539 -1703.1070556640625 -0.8852860430876414 0.3463639423629979 0.17299028361837068
-1163.960693359375 -74.26619720458984 -1697.5052490234375 -0.9332622170448304 0.2002613910532851 0.14243750572204592
-1163.8040771484375 -75.5057601928711 -1694.2137451171875 -0.8974473646708897 0.23600714407629042 0.16681946494749614
-1151.056884765625 -75.30281066894531 -1694.2183837890625 0.9337483167648316 0.22976285815238953 0.15265471041202547
-1152.2181396484375 -72.86415100097656 -1694.2200927734375 0.39995483720849734 0.6287333816289902 0.4710021416346232
-1161.696533203125 -72.86415100097656 -1694.2135009765625 -0.3181049283254348 0.6768220663070679 0.549885297815005
-1163.682373046875 -76.87696075439453 -1691.6732177734375 -0.7325127174456914 0.4664014839324011 0.13281225350995857
-1161.65576171875 -75.38504028320312 -1691.6728515625 -0.21038300117400013 0.8277374029159547 0.250291966056102
-1152.3057861328125 -75.38504028320312 -1691.677001953125 0.2910587971269479 0.710574471950531 0.38884357291972266
-1151.14453125 -76.87696075439453 -1691.675048828125 0.8734769310270036 0.30725125577445817 0.12712645904645925
-1165.8978271484375 -78.29362487792969 -1556.7291259765625 -0.5178705624171666 -1.5326908656529016E-07 0.22961768507957458
-1165.06640625 -77.7533187866211 -1557.211669921875 -0.25213114470243453 0.938339102268219 0.1348421037197113
-1159.0911865234375 -78.29361724853516 -1544.9921875 0.09222015738487244 4.455600495540628E-07 0.1681847082717078
-1159.269775390625 -77.84209442138672 -1547.9510498046875 0.23388751223683357 0.8664923459291458 0.11601213924586773
-1173.1226806640625 -78.28776550292969 -1574.75537109375 -0.657612180709839 0.5246304035186767 0.19782638996839524
-1172.26611328125 -77.65518951416016 -1575.541259765625 -0.27879130591948825 0.9283101459344227 0.0937310232159992
-1156.7779541015625 -76.89697265625 -1564.1009521484375 0.3388015838960806 0.8242283761501312 0.08261323099335034
-1156.051025390625 -77.83740234375 -1563.648681640625 0.7949331879615784 0.4307900984842604 0.13517582565546035
-1177.6619873046875 -78.29362487792969 -1594.30419921875 -0.5187776386737823 -1.0728836059570313E-07 0.10236234366893769
-1176.5653076171875 -77.77012634277344 -1594.765380859375 -0.28085714152881075 0.9384616868836538 0.04658920085889154
-1154.9140625 -76.22183990478516 -1580.547607421875 0.3394426479935646 0.8237341344356537 0.05382377647523147
-1153.62646484375 -77.70545196533203 -1580.2506103515625 0.8694457213083903 0.3280123307094792 0.11567598457137743
-1153.149658203125 -76.08988952636719 -1597.0526123046875 0.27027577906847 0.8481855511665345 0.026933076942805202
-1151.976806640625 -77.57350158691406 -1596.8526611328125 0.8689063361712864 0.36002368485839853 0.07080738352877752
-1179.97021484375 -78.29361724853516 -1613.0360107421875 -0.4218667671084404 7.450580596923828E-09 0.04361115023493767
-1178.8546142578125 -77.77012634277344 -1613.33984375 -0.20523536503314974 0.9622523665428162 0.02004111376591027
-1152.2828369140625 -76.08988952636719 -1613.5576171875 0.4704419234767556 0.7561846375465393 0.014673328114440665
-1151.1453857421875 -77.57350158691406 -1613.4547119140625 0.9304187794526417 0.20306978273098744 0.024438457955208527
-1180.3692626953125 -77.72315216064453 -1631.914306640625 -0.22636553006512777 0.9552463718823023 0.015272546958710465
-1181.5028076171875 -78.29361724853516 -1631.7677001953125 -0.4469304581483205 4.9670537312825516E-08 0.012858846612895528
-1181.7205810546875 -78.29361724853516 -1679.859375 -0.2685671538114548 -9.847188948697294E-08 -0.4130624318495393
-1180.1724853515625 -77.60281372070312 -1679.302734375 -0.29364877045154575 0.8367205381393433 -0.264769375929609
-1181.6116943359375 -78.29361724853516 -1674.666259765625 -0.4339802910884221 1.0927518208821614E-07 0.0015454605260553458
-1180.2249755859375 -77.60281372070312 -1674.702880859375 -0.2805747911334038 0.9424656927585602 0.01665198579818631
-1152.28076171875 -75.38558197021484 -1674.6346435546875 0.22850525831729365 0.8672258108854294 0.020275893746050617
-1152.28173828125 -75.73773956298828 -1644.0960693359375 0.36510453931987286 0.8016842007637024 0.009257112396880984
-1151.1446533203125 -76.87799072265625 -1674.6649169921875 0.9121159485408238 0.25999815674404253 0.0020017726302025297
-1151.7137451171875 -76.48394012451172 -1644.1112060546875 0.794793975353241 0.6068361759185792 0.006976664066314697
-1151.14501953125 -77.22574615478516 -1644.059814453125 0.8760159373283387 0.3652281045913697 0.004160018778020458
-1162.0277099609375 -75.38558197021484 -1688.990234375 -0.3865021137462463 0.8571862339973451 -0.0800642909918679
-1164.5477294921875 -75.87377166748047 -1685.1824951171875 -0.3613395653665066 0.821023976802826 -0.23366535268723965
-1169.166748046875 -76.17406463623047 -1682.269287109375 -0.22781623527407646 0.8364792227745057 -0.34290050975978376
-1174.653564453125 -76.57141876220703 -1680.3939208984375 -0.20043639590342838 0.8115353782971699 -0.3332360338342065
-1175.3603515625 -77.81271362304688 -1681.077880859375 -0.2796270574132601 0.3317229040056304 -0.816474179426829
-1170.822509765625 -77.26182556152344 -1682.809814453125 -0.38638316591580707 0.3495246498426721 -0.75883948802948
-1165.683837890625 -77.11564636230469 -1685.8135986328125 -0.5908777664105097 0.36408062585154133 -0.5681793342034022
-1163.97998046875 -76.8779525756836 -1688.4429931640625 -0.7808289527893066 0.36881469683299173 -0.23984024052818614
-1159.269775390625 -78.74515533447266 -1547.9510498046875 0.23388790898025036 -0.8664916455745697 0.11601257137954235
-1165.06640625 -78.83392333984375 -1557.211669921875 -0.25213100016117096 -0.9383392214775086 0.1348421797156334
-1173.1226806640625 -78.29948425292969 -1574.75537109375 -0.6576122939586639 -0.5246303081512451 0.1978264018893242
-1172.26611328125 -78.93205261230469 -1575.541259765625 -0.27879115069905913 -0.9283101658026377 0.0937309549190104
-1156.7779541015625 -79.69026947021484 -1564.1009521484375 0.3388015069067478 -0.8242286741733551 0.08261312482257684
-1156.051025390625 -78.74983978271484 -1563.648681640625 0.8273621797561646 -0.35899139777165107 0.1367308696111043
-1176.5653076171875 -78.8171157836914 -1594.765380859375 -0.2808570617011615 -0.9384616953986031 0.046589102562783015
-1154.9140625 -80.36540222167969 -1580.547607421875 0.3394390059014161 -0.8237387239933014 0.05382401973474771
-1153.62646484375 -78.88179016113281 -1580.2506103515625 0.8703779975573221 -0.3280039505740812 0.10807260622580846
-1153.149658203125 -80.49735260009766 -1597.0526123046875 0.27026948630809783 -0.8481934785842896 0.026932533085346225
-1178.8546142578125 -78.8171157836914 -1613.33984375 -0.20523548871278763 -0.9622522950172425 0.020041066640987995
-1180.3692626953125 -78.86408996582031 -1631.914306640625 -0.226365613085883 -0.9552463463374546 0.01527252814932061
-1152.2828369140625 -80.49735260009766 -1613.5576171875 0.47044067177921534 -0.7561862096190453 0.014673036726890132
-1151.976806640625 -79.01373291015625 -1596.8519287109375 0.8694230147770472 -0.3600073041073171 0.0638270191848278
-1180.2249755859375 -78.98442077636719 -1674.702880859375 -0.28057516490419704 -0.9424655636151631 0.01665202813455835
-1152.28076171875 -81.20166015625 -1674.6346435546875 0.228505232496308 -0.8672257761160532 0.020275923876700592
-1152.28173828125 -80.84950256347656 -1644.0960693359375 0.3651045262813568 -0.8016842007637024 0.009257118799723685
-1151.7137451171875 -80.10330200195312 -1644.1112060546875 0.7947940230369568 -0.6068361282348633 0.00697666360065341
-1151.1453857421875 -79.01373291015625 -1613.4547119140625 0.9167528986930847 -0.24367853403091433 0.01932207094941987
-1151.14501953125 -79.36149597167969 -1644.059814453125 0.8760159373283387 -0.3652281045913697 0.004160016915375308
-1174.653564453125 -80.01582336425781 -1680.3939208984375 -0.20043665977815786 -0.8115351398785908 -0.3332361022476107
-1180.1724853515625 -78.98442077636719 -1679.302734375 -0.29364929497241976 -0.8367203831672669 -0.2647693695500493
-1175.3603515625 -78.77452850341797 -1681.077880859375 -0.26423637568950653 -0.39806773810507823 -0.7929162144660951
-1170.822509765625 -79.3254165649414 -1682.809814453125 -0.3617063065369924 -0.3495246655114575 -0.770662248134613
-1169.166748046875 -80.41317749023438 -1682.269287109375 -0.22781613916158677 -0.8364792823791505 -0.3429005917161703
-1165.683837890625 -79.47159576416016 -1685.8135986328125 -0.5351165384054184 -0.3640808022345384 -0.6214326967795689
-1164.5477294921875 -80.71346282958984 -1685.1824951171875 -0.36133945956826213 -0.8210241198539734 -0.2336653243750334
-1163.97998046875 -79.70928192138672 -1688.4429931640625 -0.7547336022059122 -0.3688146538023152 -0.31518266039590037
-1162.0277099609375 -81.20166015625 -1688.990234375 -0.38650222414289603 -0.857186245918274 -0.08006418847071473
-1151.1446533203125 -79.7092514038086 -1674.6649169921875 0.8974686761697133 -0.30333104729652405 0.002334433182189362
-1164.16796875 -85.68846130371094 -1762.3614501953125 -0.2083587224004262 -0.8188969641923904 -0.3210675389762514
-1160.8092041015625 -85.68846893310547 -1764.0465087890625 -0.14431746732000192 -0.7175315499305726 -0.5750200025795948
-1165.680419921875 -82.32029724121094 -1764.725341796875 -0.48682225602013723 -0.3678362692950817 -0.7114049111093793
-1161.5535888671875 -82.31954193115234 -1766.9837646484375 -0.2596141012385488 -0.2625186142549943 -0.8341561913490296
-1169.1903076171875 -82.32029724121094 -1761.9058837890625 -0.6963268280029298 -0.25835308945315777 -0.5567411839962005
-1166.9105224609375 -85.68846893310547 -1760.1153564453125 -0.37985454669693297 -0.759712278842926 -0.33285707991480723
-1157.9444580078125 -85.68846130371094 -1764.1380615234375 0.06182691405435037 -0.8733813762664795 -0.24382821300744695
-1157.696533203125 -82.32029724121094 -1766.9307861328125 0.19683912326581776 -0.31895165888479937 -0.839239701628685
-1171.8455810546875 -82.32029724121094 -1757.4217529296875 -0.77105047305425 -0.4290959087375086 -0.3156096041202545
-1169.1868896484375 -85.68846130371094 -1756.5234375 -0.2822333043660223 -0.8533026814460755 -0.11440413327759416
-1151.14501953125 -77.94586181640625 -1644.059814453125 1 0 1.1443743915151572E-05
3 0 1 2
3 3 2 4
3 2 1 4
3 4 1 5
3 1 6 5
3 5 6 7
3 6 8 7
3 9 10 11
3 10 12 11
3 11 12 0
3 12 13 0
3 0 13 1
3 13 14 1
3 1 14 6
3 6 14 8
3 14 15 8
3 14 13 16
3 13 12 16
3 12 10 16
3 16 10 17
3 15 14 18
3 14 16 18
3 18 16 19
3 16 17 19
3 19 17 20
3 17 10 20
3 20 10 21
3 21 10 22
3 10 9 22
3 19 20 23
3 20 24 23
3 22 25 21
3 25 26 21
3 21 26 20
3 26 27 20
3 20 27 24
3 24 27 28
3 27 29 28
3 28 29 30
3 30 29 31
3 29 32 31
3 31 32 33
3 32 34 33
3 34 35 33
3 35 36 33
3 33 36 37
3 36 38 37
3 38 39 37
3 37 39 40
3 25 34 26
3 34 32 26
3 26 32 27
3 32 29 27
3 30 31 41
3 41 31 42
3 31 33 42
3 42 33 37
3 37 40 42
3 40 43 42
3 42 43 41
3 44 45 46
3 45 47 46
3 48 46 49
3 46 47 49
3 49 47 50
3 47 45 50
3 50 45 51
3 45 44 51
3 50 52 49
3 52 53 49
3 49 53 48
3 54 53 55
3 53 52 55
3 55 52 56
3 52 50 56
3 50 51 56
3 56 51 57
3 56 58 55
3 54 55 59
3 55 58 59
3 59 58 60
3 58 61 60
3 61 62 60
3 60 62 63
3 64 63 65
3 63 62 65
3 65 62 66
3 62 61 66
3 66 61 67
3 61 58 67
3 67 58 68
3 58 56 68
3 56 57 68
3 68 57 69
3 68 69 67
3 69 70 67
3 70 71 67
3 67 71 66
3 71 72 66
3 66 72 73
3 72 74 73
3 73 74 65
3 74 75 65
3 75 76 65
3 65 76 64
3 65 66 73
3 77 78 79
3 78 80 79
3 79 80 74
3 74 80 75
3 80 81 75
3 75 81 76
3 72 82 74
3 82 83 74
3 74 83 79
3 83 84 79
3 79 84 77
3 84 85 77
3 85 86 77
3 77 86 78
3 86 87 78
3 78 87 88
3 88 87 89
3 87 90 89
3 85 91 86
3 91 92 86
3 86 92 87
3 92 93 87
3 87 93 90
3 90 93 94
3 94 93 95
3 95 93 96
3 93 92 96
3 96 92 97
3 92 91 97
3 98 99 100
3 99 101 100
3 102 103 98
3 98 103 99
3 103 104 99
3 99 104 101
3 104 105 101
3 101 105 100
3 106 107 102
3 102 107 103
3 107 108 103
3 103 108 104
3 108 109 104
3 104 109 105
3 107 110 108
3 110 111 108
3 108 111 109
3 106 112 107
3 112 113 107
3 107 113 110
3 113 114 110
3 110 114 111
3 114 115 111
3 114 113 116
3 113 112 116
3 116 112 117
3 118 119 120
3 119 121 120
3 120 121 117
3 117 121 116
3 121 122 116
3 116 122 123
3 122 124 125
3 126 125 124
3 127 122 128
3 128 122 129
3 129 122 130
3 122 121 130
3 130 121 119
3 118 131 119
3 119 131 130
3 131 132 130
3 130 132 129
3 132 133 129
3 129 133 128
3 133 134 128
3 128 134 127
3 134 94 127
3 94 95 127
3 127 95 122
3 95 96 122
3 96 97 122
3 97 124 122
3 81 80 88
3 80 78 88
3 135 136 100
3 136 98 100
3 137 98 138
3 98 136 138
3 138 136 139
3 136 135 139
3 139 135 140
3 135 100 140
3 106 137 141
3 137 138 141
3 141 138 142
3 138 139 142
3 142 139 143
3 139 140 143
3 142 144 141
3 144 145 141
3 145 112 141
3 141 112 106
3 117 112 146
3 112 145 146
3 146 145 147
3 145 144 147
3 147 144 148
3 144 142 148
3 148 142 143
3 120 117 149
3 117 146 149
3 149 146 150
3 146 147 151
3 152 151 147
3 147 153 154
3 147 148 153
3 150 155 149
3 155 156 149
3 149 156 120
3 120 156 118
3 118 156 157
3 156 155 157
3 157 155 158
3 155 159 158
3 158 159 160
3 159 161 160
3 160 161 162
3 161 163 162
3 162 163 38
3 38 163 39
3 163 150 39
3 39 150 40
3 40 150 43
3 150 164 43
3 155 150 159
3 159 150 161
3 150 163 161
3 165 166 167
3 166 168 167
3 169 170 167
3 167 170 165
3 170 171 165
3 165 171 166
3 171 172 166
3 166 172 168
3 169 173 170
3 173 174 170
3 170 174 171
3 174 5 171
3 171 5 172
3 5 7 172
3 5 174 4
3 174 173 4
3 4 173 3
3 118 157 131
3 157 158 131
3 131 158 132
3 158 160 132
3 132 160 133
3 160 162 133
3 133 162 134
3 162 38 134
3 134 38 94
3 100 105 140
3 105 109 140
3 140 109 143
3 109 111 143
3 143 111 148
3 111 115 148
3 148 115 153
3 175 126 124
3 164 175 124
3 164 124 43
3 124 97 43
3 60 63 0
3 0 63 11
3 11 63 9
3 63 64 9
3 64 76 9
3 9 76 22
3 76 81 22
3 22 81 25
3 25 81 34
3 81 88 34
3 88 89 34
3 34 89 35
3 89 90 35
3 35 90 36
3 36 90 38
3 90 94 38
3 0 2 60
3 60 2 59
3 2 3 59
3 59 3 54
3 54 3 53
3 3 173 53
3 173 169 53
3 53 169 48
3 169 167 48
3 48 167 46
3 167 168 46
3 46 168 44
3 168 172 44
3 44 172 51
3 51 172 57
3 172 7 57
3 7 8 57
3 8 69 57
3 8 15 69
3 69 15 70
3 15 18 70
3 70 18 71
3 71 18 72
3 18 19 72
3 19 23 72
3 72 23 82
3 23 24 82
3 82 24 83
3 83 24 84
3 24 28 84
3 28 30 84
3 84 30 85
3 30 41 85
3 85 41 91
3 91 41 97
3 41 43 97
3 98 137 102
3 137 106 102
3 115 175 153
3 175 154 153
3 114 126 115
3 175 115 126
3 154 152 147
3 175 164 154
3 125 123 122
3 126 114 125
3 150 152 164
3 154 164 152
3 116 123 114
3 125 114 123
3 146 151 150
3 152 150 151
